<svg width="60" height="49" viewBox="0 0 60 49" fill="none" xmlns="http://www.w3.org/2000/svg">
<g id="Group">
<path id="Vector" d="M30.7878 38.8326H40.5525C40.5525 38.8326 42.6637 45.0804 36.3301 46.1761H29.2051C29.2051 46.1761 34.3517 42.6676 30.7878 38.8326Z" fill="#4BB4E7"/>
<path id="Vector_2" d="M56.2391 23.3429H42.7278V27.0811C42.7278 27.0811 40.6194 29.5631 39.5458 28.7358L30.0938 28.2792C30.0938 28.2792 32.9438 32.8724 30.2736 36.6687H46.9475C46.9475 36.6687 49.1168 36.7241 49.3188 34.9117L49.222 30.0058C49.222 30.0058 47.4705 28.2488 46.9669 28.1464C46.9669 28.1464 46.3305 26.24 48.1428 26.6439C48.1428 26.6439 50.2347 26.5139 51.2751 29.22L51.7787 32.0396C51.7787 32.0396 57.0775 29.3445 56.2391 23.3457V23.3429Z" fill="#4BB4E7"/>
<path id="Vector_3" d="M53.8067 15.493C53.2256 15.9302 52.8714 16.1737 52.5421 16.4476C51.1227 17.6208 49.468 18.1604 47.6529 18.188C45.4863 18.2212 43.3225 18.2046 41.156 18.1936C39.8942 18.1853 39.2025 17.6512 39.2633 16.7021C39.3353 15.5594 40.1073 15.2799 41.1062 15.2854C43.1122 15.2965 45.1155 15.2854 47.1216 15.2854C49.0336 15.2854 50.5914 14.5467 51.9915 12.9335C50.5112 11.4061 49.0336 9.94515 47.6335 8.41777C46.5737 7.26117 45.3009 7.05365 43.8261 7.15326C42.7719 7.2252 42.6086 7.7703 42.5865 8.6502C42.5616 9.64078 43.1648 9.62418 43.8455 9.60758C44.4072 9.59374 44.9689 9.59374 45.5306 9.60758C46.6789 9.64078 47.3817 10.2053 47.307 11.099C47.2212 12.1449 46.5322 12.5046 45.561 12.5019C42.8743 12.4963 40.1875 12.4963 37.5008 12.5019C37.0304 12.5019 36.5628 12.5434 35.9679 12.5738C35.9679 13.9158 36.0038 15.1499 35.9596 16.3839C35.871 18.9655 33.9812 20.8111 31.4134 20.8692C31.0537 20.8775 30.6857 20.8305 30.3315 20.8831C29.8002 20.9605 28.9259 20.5427 28.8844 21.4614C28.8401 22.4658 29.7587 22.0175 30.2596 22.0618C31.1367 22.1393 32.0249 22.0535 32.9048 22.1005C34.7199 22.1974 36.0702 23.3457 36.2446 25.1166C36.3469 26.1597 36.7315 26.5416 37.7387 26.3949C38.0542 26.3479 38.3807 26.3617 38.6989 26.3922C39.6812 26.4862 40.0353 26.0767 40.0436 25.0778C40.0685 22.4686 41.3801 21.1819 43.9755 21.121C47.4647 21.0408 50.9539 20.9882 54.4403 20.9163C54.8719 20.908 55.3008 20.8665 56.0839 20.8194C55.2898 18.9683 54.5842 17.3164 53.8039 15.4957L53.8067 15.493Z" fill="#4BB4E7"/>
<path id="Vector_4" d="M41.488 4.72383C40.7685 4.4665 40.2345 4.22854 39.6756 4.08189C37.022 3.37907 36.1172 4.06805 36.048 6.81568C36.048 6.89592 36.0453 6.97616 36.048 7.05641C36.1145 9.97005 35.478 9.55777 38.685 9.61034C39.3961 9.62141 39.7254 9.37238 39.6783 8.63912C39.5732 7.10344 40.0491 5.80019 41.4907 4.7266L41.488 4.72383Z" fill="#4BB4E7"/>
<path id="Vector_5" d="M51.8864 31.6771C54.5012 31.0379 56.6623 27.059 56.1006 23.8188C55.7381 23.8188 55.3507 23.8133 54.9606 23.8188C51.4299 23.8853 47.8992 23.9821 44.3658 24.0015C43.2756 24.007 42.902 24.3722 42.902 25.4818C42.902 27.914 41.513 29.2615 39.0559 29.2864C36.2861 29.3141 33.5164 29.2781 30.7494 29.2421C29.5347 29.2255 28.8872 28.6832 28.9702 27.7812C29.0698 26.6937 29.8363 26.4503 30.7743 26.4558C31.4162 26.4613 32.0692 26.5139 32.6974 26.4143C32.9879 26.3672 33.2286 26.0103 33.4915 25.7945C33.2258 25.5095 33.0073 25.1442 32.6835 24.9644C32.4345 24.8288 32.0554 24.9256 31.7344 24.9256C26.9199 24.9256 22.1025 24.9256 17.288 24.9256C16.967 24.9256 16.646 24.9339 16.3251 24.9146C15.4728 24.862 14.9333 24.3667 14.925 23.5532C14.9139 22.7231 15.4894 22.214 16.3195 22.1863C17.7639 22.1365 19.2083 22.1614 20.6526 22.1614C22.3709 22.1614 24.0865 22.1614 25.8629 22.1614C25.9293 21.68 25.9763 21.3286 26.0234 20.9799C26.2613 19.245 27.3875 18.1714 29.1528 18.0552C29.911 18.0054 30.6774 18.0469 31.4411 18.0303C32.4511 18.0082 33.0349 17.4603 33.0792 16.4752C33.1373 15.1997 33.093 13.9185 33.093 12.5184C32.6254 12.488 32.238 12.4437 31.8507 12.4437C29.2829 12.4437 26.7123 12.452 24.1446 12.4576C24.0643 12.4576 23.9841 12.4631 23.9039 12.4631C22.6144 12.4465 21.9282 11.9457 21.9421 11.027C21.9559 10.1278 22.6504 9.64354 23.9592 9.64631C25.5253 9.64908 27.0887 9.68781 28.6548 9.67121C29.2912 9.66291 29.9414 9.60757 30.5612 9.46646C32.4013 9.04311 33.2175 8.00272 33.1594 6.25951C33.0986 4.4333 32.0803 3.14388 30.3011 2.93912C29.2857 2.82291 28.2259 2.98339 27.1966 3.09961C25.8823 3.24903 25.1767 2.91422 25.0605 1.98174C24.9525 1.10184 25.5419 0.54014 26.7566 0.382422C31.9558 -0.298258 37.083 -0.20418 42.0415 1.77422C46.3884 3.50912 49.908 6.33699 52.9573 9.84C54.9495 12.1283 56.7287 14.5301 57.8438 17.3718C59.266 20.9965 59.6312 24.6932 58.3501 28.4314C57.3236 31.4308 55.4476 33.6638 52.3402 34.7097C52.0608 34.8038 51.7509 35.1054 51.6485 35.3849C50.5251 38.4258 48.9424 39.5796 45.835 39.5962C45.1156 39.599 44.1887 39.3887 43.7376 39.7512C43.3309 40.0777 43.4443 41.0517 43.3337 41.7434C42.7415 45.4207 39.6785 48.0632 35.9652 48.0743C32.7942 48.0854 29.6232 48.0743 26.4522 48.0743C26.2918 48.0743 26.1313 48.0715 25.9708 48.0743C25.0245 48.0826 24.3687 47.662 24.3687 46.6853C24.3687 45.6891 25.0632 45.3267 25.9902 45.3211C29.2801 45.2962 32.5701 45.2824 35.86 45.2326C38.1539 45.1966 39.8666 43.8823 40.3951 41.8154C40.4256 41.6991 40.4588 41.5829 40.4781 41.4639C40.7576 39.8204 40.6192 39.6571 38.9895 39.6377C34.1334 39.5824 29.2773 39.5105 24.424 39.48C23.4169 39.4745 22.7805 39.0982 22.6836 38.0799C22.6061 37.2609 23.3449 36.6909 24.4157 36.6937C31.5186 36.7047 38.6242 36.7241 45.7271 36.7352C48.104 36.7379 48.9009 35.9327 48.9092 33.5614C48.9092 32.9582 48.8843 32.3578 48.9147 31.7573C48.9756 30.5371 48.638 29.5382 47.4786 28.9488C47.4426 28.9295 47.4122 28.9046 47.379 28.8797C46.6153 28.3318 46.3525 27.629 46.8754 26.8017C47.3873 25.9937 48.1455 26.0463 48.8926 26.4337C50.5389 27.2887 51.488 28.6555 51.7564 30.4928C51.8145 30.883 51.8449 31.2759 51.8892 31.6743L51.8864 31.6771ZM53.8067 15.493C53.2257 15.9301 52.8715 16.1736 52.5422 16.4476C51.1228 17.6208 49.4681 18.1603 47.6529 18.188C45.4864 18.2212 43.3226 18.2046 41.156 18.1936C39.8943 18.1852 39.2025 17.6512 39.2634 16.7021C39.3354 15.5594 40.1074 15.2799 41.1062 15.2854C43.1123 15.2965 45.1156 15.2854 47.1217 15.2854C49.0337 15.2854 50.5915 14.5467 51.9916 12.9335C50.5112 11.4061 49.0337 9.94515 47.6336 8.41777C46.5738 7.26116 45.301 7.05364 43.8262 7.15325C42.772 7.22519 42.6087 7.77029 42.5866 8.65019C42.5617 9.64078 43.1649 9.62417 43.8456 9.60757C44.4073 9.59374 44.969 9.59374 45.5307 9.60757C46.679 9.64078 47.3818 10.2052 47.3071 11.099C47.2213 12.1449 46.5323 12.5046 45.5611 12.5018C42.8743 12.4963 40.1876 12.4963 37.5009 12.5018C37.0305 12.5018 36.5628 12.5434 35.9679 12.5738C35.9679 13.9158 36.0039 15.1499 35.9596 16.3839C35.8711 18.9655 33.9812 20.8111 31.4135 20.8692C31.0538 20.8775 30.6857 20.8305 30.3316 20.8831C29.8003 20.9605 28.9259 20.5427 28.8844 21.4614C28.8402 22.4658 29.7588 22.0175 30.2596 22.0618C31.1368 22.1393 32.025 22.0535 32.9049 22.1005C34.72 22.1974 36.0703 23.3457 36.2446 25.1166C36.347 26.1597 36.7316 26.5416 37.7388 26.3949C38.0542 26.3479 38.3808 26.3617 38.699 26.3921C39.6812 26.4862 40.0354 26.0767 40.0437 25.0778C40.0686 22.4686 41.3802 21.1819 43.9756 21.121C47.4648 21.0408 50.954 20.9882 54.4404 20.9163C54.872 20.908 55.3009 20.8665 56.084 20.8194C55.2898 18.9683 54.5843 17.3164 53.804 15.4957L53.8067 15.493ZM41.4881 4.72383C40.7687 4.4665 40.2346 4.22854 39.6757 4.08189C37.0222 3.37907 36.1174 4.06805 36.0482 6.81568C36.0482 6.89592 36.0454 6.97616 36.0482 7.05641C36.1146 9.97005 35.4782 9.55777 38.6851 9.61034C39.3962 9.62141 39.7255 9.37238 39.6785 8.63912C39.5733 7.10344 40.0492 5.80019 41.4909 4.7266L41.4881 4.72383Z" fill="#466AB3"/>
<path id="Vector_6" d="M40.6472 34.3223C39.2886 34.3223 37.9273 34.3223 36.5687 34.3223C35.5753 34.3223 34.9002 33.8796 34.9113 32.8558C34.9223 31.8237 35.6334 31.417 36.6074 31.417C39.3661 31.417 42.1276 31.4142 44.8863 31.417C45.8686 31.417 46.5575 31.8597 46.5465 32.889C46.5354 33.9267 45.8187 34.3196 44.8475 34.3196C43.4474 34.3196 42.0473 34.3196 40.6472 34.3196V34.3223Z" fill="#466AB3"/>
<g id="Group_2">
<path id="Vector_7" d="M18.5 4.72103C21.4303 4.72103 24.3577 4.73763 27.288 4.71273C28.2454 4.70443 29.0727 4.93132 29.0478 6.01875C29.0257 7.0204 28.2066 7.26389 27.3129 7.26113C25.1851 7.25283 23.06 7.2805 20.9322 7.25283C20.127 7.24176 19.8033 7.51016 19.7756 8.35686C19.7009 10.6728 18.5305 11.8018 16.2449 11.8516C15.0025 11.8792 13.7574 11.8599 12.5123 11.8516C11.6241 11.8488 10.9849 11.4559 11.0125 10.5179C11.0375 9.65181 11.649 9.2838 12.4901 9.2838C13.6938 9.2838 14.8974 9.26996 16.101 9.27826C16.8149 9.28103 17.23 9.02647 17.2549 8.23511C17.2826 7.38011 16.8039 7.24729 16.1093 7.25283C14.1835 7.26943 12.2577 7.25836 10.3319 7.25836C10.1299 7.25836 9.93065 7.2722 9.73143 7.26389C8.84046 7.23346 8.08507 6.96229 8.10997 5.9136C8.13488 4.92579 8.8709 4.70166 9.71483 4.70166C12.6451 4.70166 15.5726 4.70166 18.5028 4.70166C18.5028 4.70719 18.5028 4.70996 18.5028 4.71549L18.5 4.72103Z" fill="#4BB4E7"/>
<path id="Vector_8" d="M20.086 29.0761C18.2017 29.0761 16.3174 29.1065 14.4358 29.0706C10.8166 28.9986 8.63346 26.3949 9.02084 22.6622C9.33351 19.6462 12.4934 17.4326 15.6395 18.1244C16.0822 18.2212 16.7491 18.9406 16.6937 19.2727C16.6162 19.7403 16.0075 20.1692 15.5426 20.5012C15.3268 20.6561 14.9201 20.5344 14.5991 20.5455C12.6179 20.6119 11.5554 21.6301 11.5305 23.4785C11.5056 25.3905 12.5681 26.5637 14.5521 26.5941C18.1575 26.6495 21.7656 26.6135 25.3738 26.619C25.6947 26.619 26.0157 26.6162 26.3367 26.6301C27.1612 26.6661 27.7617 26.9926 27.7312 27.9167C27.7036 28.78 27.1031 29.0706 26.3394 29.0761C24.2559 29.0872 22.1724 29.0816 20.0888 29.0816L20.086 29.0761Z" fill="#4BB4E7"/>
<path id="Vector_9" d="M17.2004 13.39C20.7698 13.39 24.3392 13.3651 27.9086 13.4177C28.4399 13.426 29.1372 13.6723 29.4609 14.0569C30.0945 14.8123 29.4028 15.8582 28.2462 15.908C26.8461 15.9716 25.4405 15.944 24.0348 15.9412C18.2989 15.9412 12.5656 15.9329 6.82967 15.9246C6.55021 15.9246 6.2652 15.944 5.98851 15.9052C5.22205 15.7945 4.58564 15.3629 4.7821 14.5826C4.90108 14.115 5.54302 13.5201 6.01894 13.4509C7.19768 13.2793 8.41792 13.3706 9.62157 13.3679C12.1478 13.3623 14.6741 13.3679 17.2004 13.3679C17.2004 13.3734 17.2004 13.3817 17.2004 13.3873V13.39Z" fill="#4BB4E7"/>
<path id="Vector_10" d="M21.3071 31.3976C23.6701 31.3976 26.0331 31.3976 28.3961 31.3976C29.2705 31.3976 30.0923 31.5747 30.0951 32.6344C30.0978 33.6914 29.2899 33.8796 28.41 33.8796C23.6839 33.8741 18.9579 33.8741 14.2347 33.8796C13.3326 33.8796 12.5828 33.6638 12.6132 32.5874C12.6409 31.5802 13.3907 31.3976 14.2236 31.3976C16.5866 31.3976 18.9496 31.3976 21.3126 31.3976H21.3071Z" fill="#4BB4E7"/>
<path id="Vector_11" d="M22.637 43.7439C20.6724 43.7439 18.7079 43.7356 16.7433 43.7467C15.8385 43.7522 15.0803 43.5143 15.0969 42.4628C15.1135 41.4805 15.8496 41.2592 16.7018 41.2619C20.6697 41.2675 24.6375 41.2702 28.6082 41.2619C29.5213 41.2619 30.2933 41.5303 30.2711 42.543C30.2518 43.47 29.5185 43.7578 28.6497 43.7495C26.6464 43.7328 24.6403 43.7439 22.637 43.7439Z" fill="#4BB4E7"/>
<path id="Vector_12" d="M14.7184 39.1175C13.559 39.1175 12.4024 39.1175 11.243 39.1175C10.3908 39.1175 9.64648 38.8048 9.64648 37.8806C9.64648 36.9177 10.3742 36.5497 11.2984 36.5525C13.6144 36.558 15.9331 36.558 18.2491 36.5525C19.1207 36.5525 19.793 36.8624 19.8152 37.8115C19.8373 38.8546 19.0985 39.1258 18.1937 39.123C17.0344 39.1175 15.8777 39.123 14.7184 39.123V39.1175Z" fill="#4BB4E7"/>
<path id="Vector_13" d="M21.392 20.5288C20.6339 20.5288 19.8342 20.6755 19.1314 20.479C18.6472 20.3435 17.9748 19.7237 17.9775 19.3252C17.9803 18.9074 18.6582 18.1741 19.0926 18.1326C20.6754 17.9832 22.2885 17.9721 23.874 18.116C24.3029 18.1548 24.9808 18.9268 24.9725 19.3473C24.9614 19.7569 24.2725 20.3656 23.7772 20.4956C23.0301 20.6921 22.1917 20.5454 21.3948 20.5454C21.3948 20.5399 21.3948 20.5344 21.3948 20.5288H21.392Z" fill="#4BB4E7"/>
<path id="Vector_14" d="M3.1494 26.3976C2.50746 26.3976 1.81571 26.5471 1.23741 26.3534C0.728281 26.1846 0.0199312 25.6478 0.000562271 25.2466C-0.0215737 24.8122 0.614835 23.9987 1.03542 23.9489C2.46042 23.7856 3.92692 23.7884 5.34916 23.9516C5.77804 24.0014 6.43105 24.7956 6.41445 25.23C6.40061 25.6312 5.6895 26.1901 5.18037 26.3506C4.56056 26.5443 3.83008 26.3976 3.1494 26.3976Z" fill="#4BB4E7"/>
<path id="Vector_15" d="M3.8688 20.7585C3.18812 20.7585 2.50191 20.7972 1.82399 20.7502C1.09627 20.6976 0.498604 20.2715 0.659089 19.5355C0.758701 19.0762 1.3287 18.4232 1.74098 18.3789C3.12725 18.2322 4.54118 18.282 5.94128 18.3374C6.68006 18.3678 7.22516 18.888 7.03147 19.6074C6.90972 20.0585 6.35909 20.5704 5.89424 20.7115C5.27167 20.8996 4.54671 20.7585 3.86327 20.7585H3.8688Z" fill="#4BB4E7"/>
<path id="Vector_16" d="M6.53904 33.8574C5.86112 33.8574 5.13064 34.0124 4.52466 33.8076C4.03767 33.6444 3.45661 33.0854 3.3736 32.6206C3.31549 32.2941 3.99894 31.5276 4.40292 31.4889C5.86389 31.3478 7.35253 31.3478 8.8135 31.4889C9.20918 31.5276 9.82622 32.2443 9.82345 32.6483C9.82345 33.0495 9.23685 33.6776 8.79413 33.7993C8.09132 33.993 7.29442 33.8519 6.53904 33.8519C6.53904 33.8547 6.53904 33.8574 6.53904 33.863V33.8574Z" fill="#4BB4E7"/>
<path id="Vector_17" d="M9.75725 43.7218C9.23982 43.7218 8.65045 43.874 8.2188 43.6803C7.75948 43.4755 7.16734 42.9526 7.15074 42.5486C7.13414 42.1474 7.7152 41.4196 8.11365 41.3588C9.20385 41.19 10.3549 41.1872 11.4479 41.3505C11.8629 41.4113 12.4717 42.1114 12.4661 42.5126C12.4606 42.9194 11.8712 43.4755 11.4119 43.672C10.9388 43.874 10.3134 43.7162 9.75448 43.7162C9.75448 43.7162 9.75448 43.719 9.75448 43.7218H9.75725Z" fill="#4BB4E7"/>
</g>
</g>
</svg>
