<svg width="226" height="13" viewBox="0 0 226 13" fill="none" xmlns="http://www.w3.org/2000/svg">
<g id="Group">
<path id="Vector" d="M4.46672 0.448914H12.8667C13.4667 0.448914 14.0367 0.558925 14.5667 0.788925C15.0967 1.01893 15.5567 1.32892 15.9467 1.71892C16.3367 2.11892 16.6467 2.57892 16.8667 3.10892C17.0967 3.63892 17.2067 4.19892 17.2067 4.79892V12.5689H14.5667V9.66891H2.77672V12.5689H0.136719V4.79892C0.136719 4.19892 0.246719 3.62892 0.476719 3.10892C0.706719 2.57892 1.01672 2.11892 1.39672 1.71892C1.78672 1.31892 2.24672 1.00893 2.77672 0.788925C3.30672 0.558925 3.86672 0.448914 4.46672 0.448914ZM2.77672 7.00893H14.5667V4.80891C14.5667 4.33891 14.3967 3.93892 14.0667 3.60892C13.7367 3.27892 13.3367 3.10892 12.8667 3.10892H4.46672C3.99672 3.10892 3.59672 3.27892 3.26672 3.60892C2.93672 3.93892 2.76672 4.33891 2.76672 4.80891V7.00893H2.77672Z" fill="#466AB3"/>
<path id="Vector_2" d="M21.1468 12.5689H18.5068V0.508926H21.1468V12.5689Z" fill="#466AB3"/>
<path id="Vector_3" d="M26.9065 12.5689V1.91892C26.9065 1.51892 27.0165 1.17892 27.2365 0.88892C27.4565 0.59892 27.7265 0.388925 28.0365 0.268925C28.3465 0.148925 28.6865 0.128923 29.0465 0.188923C29.4065 0.258923 29.7165 0.438921 29.9765 0.748921L37.8765 9.85892L45.7765 0.748921C46.0365 0.438921 46.3565 0.248923 46.7165 0.188923C47.0765 0.118923 47.4165 0.148925 47.7265 0.268925C48.0365 0.388925 48.3065 0.58892 48.5265 0.88892C48.7465 1.18892 48.8565 1.52892 48.8565 1.91892V12.5689H46.2365V4.18892L39.1965 12.3089C39.0165 12.5189 38.8165 12.6689 38.5765 12.7689C38.3365 12.8689 38.1065 12.9189 37.8565 12.9189C37.6065 12.9189 37.3765 12.8689 37.1565 12.7689C36.9265 12.6689 36.7265 12.5089 36.5565 12.3089L29.5165 4.18892V12.5689H26.8965H26.9065Z" fill="#466AB3"/>
<path id="Vector_4" d="M54.7865 12.5689H52.1465V0.508926H54.7865V12.5689Z" fill="#466AB3"/>
<path id="Vector_5" d="M72.0963 9.92892L73.6363 7.87892C71.7563 7.87892 69.8963 7.87893 68.0563 7.86893C66.2163 7.86893 64.3563 7.85892 62.4763 7.85892V5.19891C64.6163 5.19891 66.7563 5.19892 68.8863 5.20892C71.0163 5.20892 73.1563 5.21892 75.2963 5.21892C75.6763 5.21892 76.0063 5.31892 76.2763 5.52892C76.5463 5.73892 76.7463 5.98892 76.8863 6.28893C77.0163 6.58893 77.0663 6.91892 77.0363 7.26892C77.0063 7.61892 76.8863 7.93892 76.6663 8.23892L73.3863 12.5689H62.5663C61.9663 12.5689 61.3963 12.4589 60.8763 12.2289C60.3463 11.9989 59.8863 11.6889 59.4963 11.3089C59.1063 10.9289 58.7963 10.4589 58.5763 9.92892C58.3463 9.39892 58.2363 8.83892 58.2363 8.23892V4.84892C58.2363 4.24892 58.3463 3.67892 58.5763 3.15892C58.8063 2.62892 59.1163 2.16892 59.4963 1.76892C59.8763 1.36892 60.3463 1.05893 60.8763 0.838928C61.4063 0.608928 61.9663 0.498917 62.5663 0.498917H76.1163V3.15892H62.5663C62.0963 3.15892 61.6963 3.32892 61.3663 3.65892C61.0363 3.98892 60.8763 4.38892 60.8763 4.85892V8.24892C60.8763 8.71892 61.0463 9.11891 61.3663 9.44891C61.6963 9.77891 62.0963 9.94891 62.5663 9.94891H72.0963V9.92892Z" fill="#466AB3"/>
<path id="Vector_6" d="M85.4963 6.54892H93.4563C93.9263 6.54892 94.3263 6.37892 94.6562 6.04892C94.9862 5.71892 95.1463 5.31892 95.1463 4.84892C95.1463 4.37892 94.9862 3.97893 94.6562 3.64893C94.3263 3.31893 93.9263 3.14893 93.4563 3.14893H82.5463V12.5689H79.9062V0.508926L93.4563 0.488922C94.0563 0.488922 94.6263 0.598918 95.1463 0.828918C95.6763 1.05892 96.1363 1.36893 96.5263 1.75893C96.9163 2.14893 97.2263 2.61893 97.4463 3.14893C97.6763 3.67893 97.7863 4.23893 97.7863 4.83893C97.7863 5.43893 97.6763 6.00892 97.4463 6.52892C97.2163 7.05892 96.9063 7.51892 96.5263 7.90892C96.1463 8.29892 95.6763 8.60892 95.1463 8.82892C94.6163 9.05892 94.0563 9.16891 93.4563 9.16891H91.9163L97.6562 12.5589H92.5363L85.0563 8.13892C84.8663 8.03892 84.7363 7.88892 84.6863 7.70892C84.6363 7.52892 84.6163 7.34891 84.6663 7.16891C84.7063 6.98891 84.8063 6.83892 84.9563 6.71892C85.1063 6.59892 85.2863 6.52892 85.5063 6.52892L85.4963 6.54892Z" fill="#466AB3"/>
<path id="Vector_7" d="M104.787 0.448914H113.187C113.787 0.448914 114.357 0.558925 114.887 0.788925C115.417 1.01893 115.877 1.32892 116.267 1.71892C116.657 2.11892 116.967 2.57892 117.187 3.10892C117.417 3.63892 117.527 4.19892 117.527 4.79892V12.5689H114.887V9.66891H103.097V12.5689H100.457V4.79892C100.457 4.19892 100.567 3.62892 100.797 3.10892C101.027 2.57892 101.337 2.11892 101.717 1.71892C102.107 1.31892 102.567 1.00893 103.097 0.788925C103.627 0.558925 104.187 0.448914 104.787 0.448914ZM103.097 7.00893H114.887V4.80891C114.887 4.33891 114.717 3.93892 114.387 3.60892C114.057 3.27892 113.657 3.10892 113.187 3.10892H104.787C104.317 3.10892 103.917 3.27892 103.587 3.60892C103.257 3.93892 103.087 4.33891 103.087 4.80891V7.00893H103.097Z" fill="#466AB3"/>
<path id="Vector_8" d="M120.917 0.518921H136.537V3.15892H130.177V12.5789H127.277V3.15892H120.917V0.518921Z" fill="#466AB3"/>
<path id="Vector_9" d="M157.567 9.92892V12.5689H144.017C143.417 12.5689 142.847 12.4589 142.327 12.2289C141.797 11.9989 141.337 11.6889 140.947 11.3089C140.557 10.9189 140.247 10.4589 140.027 9.92892C139.807 9.39892 139.687 8.83892 139.687 8.23892V4.84892C139.687 4.24892 139.797 3.67892 140.027 3.15892C140.257 2.62892 140.567 2.16892 140.947 1.76892C141.337 1.36892 141.797 1.05893 142.327 0.838928C142.857 0.608928 143.417 0.498917 144.017 0.498917L157.567 0.518921V3.15892H144.017C143.547 3.15892 143.147 3.32892 142.817 3.65892C142.487 3.98892 142.327 4.38892 142.327 4.85892V5.20892H156.757V7.86893H142.327V8.23892C142.327 8.70892 142.487 9.10892 142.817 9.43892C143.147 9.76892 143.547 9.93892 144.017 9.93892H157.567V9.92892Z" fill="#466AB3"/>
<path id="Vector_10" d="M181.376 6.27892C181.376 6.87892 181.266 7.43892 181.036 7.95892C180.806 8.47892 180.496 8.93893 180.116 9.33893C179.726 9.73893 179.266 10.0489 178.736 10.2689C178.206 10.4989 177.646 10.6089 177.036 10.6089H166.126V12.5689H163.486V0.508926L177.036 0.488922C177.636 0.488922 178.206 0.598918 178.736 0.828918C179.266 1.05892 179.726 1.36893 180.116 1.75893C180.506 2.15893 180.816 2.61893 181.036 3.14893C181.266 3.67893 181.376 4.23893 181.376 4.83893V6.26892V6.27892ZM177.046 7.94891C177.516 7.94891 177.916 7.78892 178.246 7.46892C178.576 7.14892 178.746 6.74892 178.746 6.27892V4.84892C178.746 4.37892 178.576 3.97893 178.246 3.64893C177.916 3.31893 177.516 3.14893 177.046 3.14893H166.136V7.94891H177.046Z" fill="#4BB4E7"/>
<path id="Vector_11" d="M189.977 6.54892H197.937C198.407 6.54892 198.807 6.37892 199.137 6.04892C199.467 5.71892 199.637 5.31892 199.637 4.84892C199.637 4.37892 199.467 3.97893 199.137 3.64893C198.807 3.31893 198.407 3.14893 197.937 3.14893H187.027V12.5689H184.387V0.508926L197.937 0.488922C198.537 0.488922 199.107 0.598918 199.637 0.828918C200.167 1.05892 200.627 1.36893 201.017 1.75893C201.407 2.15893 201.717 2.61893 201.937 3.14893C202.167 3.67893 202.277 4.23893 202.277 4.83893C202.277 5.43893 202.167 6.00892 201.937 6.52892C201.707 7.05892 201.397 7.51892 201.017 7.90892C200.627 8.29892 200.167 8.60892 199.637 8.82892C199.107 9.05892 198.547 9.16891 197.937 9.16891H196.397L202.137 12.5589H197.007L189.527 8.13892C189.337 8.03892 189.207 7.88892 189.157 7.70892C189.107 7.52892 189.087 7.34891 189.137 7.16891C189.177 6.98891 189.277 6.83892 189.427 6.71892C189.577 6.59892 189.757 6.52892 189.977 6.52892V6.54892Z" fill="#4BB4E7"/>
<path id="Vector_12" d="M210.947 12.5689C210.107 12.5689 209.327 12.4089 208.607 12.0989C207.887 11.7889 207.247 11.3489 206.697 10.7989C206.147 10.2489 205.717 9.60893 205.397 8.88893C205.077 8.15893 204.927 7.37893 204.927 6.54893C204.927 5.71894 205.087 4.92893 205.397 4.19893C205.707 3.46893 206.147 2.82894 206.697 2.28894C207.247 1.74894 207.887 1.31893 208.607 0.998932C209.327 0.678932 210.117 0.528931 210.947 0.528931H219.947C220.787 0.528931 221.567 0.688932 222.297 0.998932C223.027 1.31893 223.677 1.74894 224.227 2.28894C224.777 2.82894 225.207 3.46893 225.527 4.19893C225.847 4.92893 225.997 5.71894 225.997 6.54893C225.997 7.37893 225.837 8.16893 225.527 8.88893C225.207 9.61893 224.777 10.2489 224.227 10.7989C223.677 11.3489 223.037 11.7789 222.297 12.0989C221.567 12.4189 220.777 12.5689 219.947 12.5689H210.947ZM219.947 9.92894C220.417 9.92894 220.857 9.83893 221.267 9.66893C221.677 9.48893 222.037 9.24893 222.347 8.93893C222.657 8.62893 222.897 8.26893 223.077 7.85893C223.257 7.44893 223.337 7.00894 223.337 6.53894C223.337 6.06894 223.247 5.62893 223.077 5.21893C222.897 4.80893 222.657 4.44893 222.347 4.13893C222.037 3.82893 221.677 3.58894 221.267 3.40894C220.857 3.22894 220.417 3.14894 219.947 3.14894H210.947C210.477 3.14894 210.037 3.23894 209.627 3.40894C209.217 3.58894 208.857 3.82893 208.547 4.13893C208.237 4.44893 207.997 4.80893 207.817 5.21893C207.637 5.62893 207.557 6.06894 207.557 6.53894C207.557 7.00894 207.647 7.44893 207.817 7.85893C207.997 8.26893 208.237 8.62893 208.547 8.93893C208.857 9.24893 209.217 9.48893 209.627 9.66893C210.037 9.84893 210.477 9.92894 210.947 9.92894H219.947Z" fill="#4BB4E7"/>
</g>
</svg>
